<svg width="90" height="27" viewBox="0 0 90 27" fill="none" xmlns="http://www.w3.org/2000/svg">
<rect width="90" height="27" fill="#1E1E1E"/>
<path d="M13.1633 0C15.7591 0 18.2967 0.71845 20.4551 2.0645C22.6135 3.41054 24.2958 5.32373 25.2892 7.56213C26.2826 9.80052 26.5425 12.2636 26.0361 14.6399C25.5296 17.0161 24.2796 19.1989 22.444 20.9121C20.6085 22.6252 18.2698 23.7919 15.7238 24.2646C13.1778 24.7373 10.5388 24.4947 8.14054 23.5675C5.74226 22.6403 3.69242 21.0702 2.25022 19.0557C0.808031 17.0412 0.0382637 14.6728 0.0382637 12.25C0.0422337 9.00223 1.42632 5.88855 3.88687 3.59203C6.34743 1.29552 9.68352 0.00370538 13.1633 0ZM24.3945 12.5947L23.1401 12.985L21.6008 15.1401V16.2627C21.6007 16.4948 21.5019 16.7173 21.3261 16.8814L18.7883 19.25V21.3299C20.4402 20.4376 21.8217 19.1676 22.8025 17.6394C23.7833 16.1112 24.3312 14.3752 24.3945 12.5947ZM13.1633 22.75C13.9743 22.7485 14.7828 22.6648 15.5745 22.5006L15.0383 21L13.3461 17.052C13.2897 16.9202 13.2685 16.7776 13.2843 16.6364C13.3002 16.4952 13.3526 16.3598 13.437 16.2417L14.7598 14.3894C14.8455 14.2696 14.9615 14.1714 15.0975 14.1034C15.2336 14.0355 15.3855 14 15.5398 14H20.1617L21.3317 12.3611L19.3376 10.5H17.8508V12.25H15.9758V9.85775L12.3495 3.934L13.977 3.066L14.7786 4.375H17.3492L18.3664 2.94962C16.9997 2.27649 15.4976 1.87662 13.9561 1.77553C12.4146 1.67444 10.8674 1.87435 9.41326 2.3625V5.25C9.41326 5.48206 9.31449 5.70462 9.13868 5.86872C8.96286 6.03281 8.7244 6.125 8.47576 6.125H7.10233C6.94802 6.12502 6.7961 6.08949 6.66003 6.02157C6.52396 5.95365 6.40796 5.85543 6.32233 5.73562L5.50014 4.58412C4.42937 5.51623 3.56326 6.63398 2.95014 7.875H6.76951C6.98616 7.87512 7.19608 7.94527 7.36357 8.07353C7.53107 8.20178 7.6458 8.38022 7.68826 8.5785L8.36608 12.4897C8.39815 12.6739 8.36634 12.8628 8.27526 13.0289C8.18419 13.1949 8.03863 13.3295 7.85983 13.4129L4.72576 14.875L4.08358 18.424C5.12415 19.7624 6.48921 20.852 8.06725 21.6039C9.64528 22.3557 11.3915 22.7485 13.1633 22.75Z" fill="#0E79F7"/>
<path d="M9.54187 14.6817C9.8806 15.0261 9.8806 15.5807 9.54187 15.9192L7.30854 18.1899L8.52568 23.5544L7.71617 24.3833L5.48858 20.0462L3.24952 22.3228L3.4562 23.7646L2.84189 24.3833L1.83144 22.5271L0 21.4939L0.608567 20.8634L2.04387 21.0794L4.26571 18.8204L0 16.538L0.81525 15.7149L6.09141 16.9524L8.32474 14.6817C8.64624 14.3431 9.22036 14.3431 9.54187 14.6817Z" fill="black"/>
<path d="M17.2539 7.16612C17.3254 7.16612 17.3854 7.14126 17.4338 7.09154C17.4823 7.04182 17.5064 6.98036 17.5062 6.90716V6.38924H18.0108C18.0823 6.38924 18.1423 6.36438 18.1907 6.31466C18.2392 6.26494 18.2633 6.20348 18.2631 6.13028C18.2631 6.05691 18.2389 5.99536 18.1905 5.94564C18.142 5.89592 18.0821 5.87115 18.0108 5.87132H17.5062V5.3534C17.5062 5.28003 17.482 5.21849 17.4336 5.16877C17.3851 5.11905 17.3252 5.09427 17.2539 5.09444C17.1824 5.09444 17.1225 5.1193 17.074 5.16902C17.0256 5.21875 17.0015 5.2802 17.0016 5.3534V5.87132H16.497C16.4255 5.87132 16.3656 5.89618 16.3171 5.9459C16.2687 5.99562 16.2445 6.05708 16.2447 6.13028C16.2447 6.20365 16.2689 6.2652 16.3174 6.31492C16.3658 6.36464 16.4257 6.38941 16.497 6.38924H17.0016V6.90716C17.0016 6.98053 17.0258 7.04208 17.0743 7.0918C17.1227 7.14152 17.1826 7.16629 17.2539 7.16612ZM15.4878 8.20196C15.6266 8.20196 15.7454 8.1512 15.8443 8.04969C15.9432 7.94818 15.9926 7.82629 15.9924 7.68404C15.9924 7.54161 15.943 7.41964 15.8441 7.31813C15.7452 7.21662 15.6264 7.16595 15.4878 7.16612C15.349 7.16612 15.2302 7.21688 15.1313 7.31839C15.0324 7.4199 14.983 7.54178 14.9832 7.68404C14.9832 7.82647 15.0327 7.94844 15.1316 8.04995C15.2305 8.15146 15.3492 8.20213 15.4878 8.20196ZM15.4878 10.6944C15.4542 10.6944 15.4205 10.688 15.3869 10.675C15.3532 10.6621 15.3238 10.6448 15.2986 10.6232C14.6846 10.0665 14.2263 9.54958 13.9235 9.07258C13.6208 8.59558 13.4694 8.14999 13.4694 7.73583C13.4694 7.08843 13.6723 6.57267 14.0782 6.18855C14.4841 5.80443 14.9539 5.61236 15.4878 5.61236C15.6055 5.61236 15.7223 5.62212 15.838 5.64163C15.9537 5.66113 16.0662 5.69238 16.1753 5.73537C16.1207 5.77853 16.0765 5.83464 16.0429 5.90369C16.0092 5.97275 15.9924 6.04828 15.9924 6.13028C15.9924 6.27271 16.0419 6.39468 16.1408 6.49619C16.2397 6.5977 16.3584 6.64837 16.497 6.6482H16.7493V6.90716C16.7493 7.04959 16.7988 7.17156 16.8977 7.27307C16.9966 7.37458 17.1153 7.42525 17.2539 7.42508C17.296 7.42508 17.3359 7.42076 17.3738 7.41213C17.4116 7.4035 17.4474 7.39055 17.481 7.37329C17.4894 7.43371 17.4957 7.49414 17.4999 7.55456C17.5041 7.61498 17.5062 7.67541 17.5062 7.73583C17.5062 8.15017 17.3548 8.59575 17.0521 9.07258C16.7493 9.54941 16.291 10.0663 15.677 10.6232C15.6518 10.6448 15.6224 10.6621 15.5887 10.675C15.5551 10.688 15.5214 10.6944 15.4878 10.6944Z" fill="#EF1717"/>
<path d="M33.6913 6.874V8.23H31.4593V15.25H29.7793V8.23H27.5473V6.874H33.6913ZM36.5971 9.634C36.8131 9.282 37.0931 9.006 37.4371 8.806C37.7891 8.606 38.1891 8.506 38.6371 8.506V10.27H38.1931C37.6651 10.27 37.2651 10.394 36.9931 10.642C36.7291 10.89 36.5971 11.322 36.5971 11.938V15.25H34.9171V8.602H36.5971V9.634ZM40.6206 7.81C40.3246 7.81 40.0766 7.718 39.8766 7.534C39.6846 7.342 39.5886 7.106 39.5886 6.826C39.5886 6.546 39.6846 6.314 39.8766 6.13C40.0766 5.938 40.3246 5.842 40.6206 5.842C40.9166 5.842 41.1606 5.938 41.3526 6.13C41.5526 6.314 41.6526 6.546 41.6526 6.826C41.6526 7.106 41.5526 7.342 41.3526 7.534C41.1606 7.718 40.9166 7.81 40.6206 7.81ZM41.4486 8.602V15.25H39.7686V8.602H41.4486ZM44.7885 9.562C45.0045 9.258 45.3005 9.006 45.6765 8.806C46.0605 8.598 46.4965 8.494 46.9845 8.494C47.5525 8.494 48.0645 8.634 48.5205 8.914C48.9845 9.194 49.3485 9.594 49.6125 10.114C49.8845 10.626 50.0205 11.222 50.0205 11.902C50.0205 12.582 49.8845 13.186 49.6125 13.714C49.3485 14.234 48.9845 14.638 48.5205 14.926C48.0645 15.214 47.5525 15.358 46.9845 15.358C46.4965 15.358 46.0645 15.258 45.6885 15.058C45.3205 14.858 45.0205 14.606 44.7885 14.302V18.418H43.1085V8.602H44.7885V9.562ZM48.3045 11.902C48.3045 11.502 48.2205 11.158 48.0525 10.87C47.8925 10.574 47.6765 10.35 47.4045 10.198C47.1405 10.046 46.8525 9.97 46.5405 9.97C46.2365 9.97 45.9485 10.05 45.6765 10.21C45.4125 10.362 45.1965 10.586 45.0285 10.882C44.8685 11.178 44.7885 11.526 44.7885 11.926C44.7885 12.326 44.8685 12.674 45.0285 12.97C45.1965 13.266 45.4125 13.494 45.6765 13.654C45.9485 13.806 46.2365 13.882 46.5405 13.882C46.8525 13.882 47.1405 13.802 47.4045 13.642C47.6765 13.482 47.8925 13.254 48.0525 12.958C48.2205 12.662 48.3045 12.31 48.3045 11.902ZM56.9413 6.874V8.23H54.7093V15.25H53.0293V8.23H50.7973V6.874H56.9413ZM59.8471 9.634C60.0631 9.282 60.3431 9.006 60.6871 8.806C61.0391 8.606 61.4391 8.506 61.8871 8.506V10.27H61.4431C60.9151 10.27 60.5151 10.394 60.2431 10.642C59.9791 10.89 59.8471 11.322 59.8471 11.938V15.25H58.1671V8.602H59.8471V9.634ZM62.5866 11.902C62.5866 11.23 62.7186 10.634 62.9826 10.114C63.2546 9.594 63.6186 9.194 64.0746 8.914C64.5386 8.634 65.0546 8.494 65.6226 8.494C66.1186 8.494 66.5506 8.594 66.9186 8.794C67.2946 8.994 67.5946 9.246 67.8186 9.55V8.602H69.5106V15.25H67.8186V14.278C67.6026 14.59 67.3026 14.85 66.9186 15.058C66.5426 15.258 66.1066 15.358 65.6106 15.358C65.0506 15.358 64.5386 15.214 64.0746 14.926C63.6186 14.638 63.2546 14.234 62.9826 13.714C62.7186 13.186 62.5866 12.582 62.5866 11.902ZM67.8186 11.926C67.8186 11.518 67.7386 11.17 67.5786 10.882C67.4186 10.586 67.2026 10.362 66.9306 10.21C66.6586 10.05 66.3666 9.97 66.0546 9.97C65.7426 9.97 65.4546 10.046 65.1906 10.198C64.9266 10.35 64.7106 10.574 64.5426 10.87C64.3826 11.158 64.3026 11.502 64.3026 11.902C64.3026 12.302 64.3826 12.654 64.5426 12.958C64.7106 13.254 64.9266 13.482 65.1906 13.642C65.4626 13.802 65.7506 13.882 66.0546 13.882C66.3666 13.882 66.6586 13.806 66.9306 13.654C67.2026 13.494 67.4186 13.27 67.5786 12.982C67.7386 12.686 67.8186 12.334 67.8186 11.926ZM73.9234 13.702L75.6034 8.602H77.3914L74.9314 15.25H72.8914L70.4434 8.602H72.2434L73.9234 13.702ZM84.515 11.782C84.515 12.022 84.499 12.238 84.467 12.43H79.607C79.647 12.91 79.815 13.286 80.111 13.558C80.407 13.83 80.771 13.966 81.203 13.966C81.827 13.966 82.271 13.698 82.535 13.162H84.347C84.155 13.802 83.787 14.33 83.243 14.746C82.699 15.154 82.031 15.358 81.239 15.358C80.599 15.358 80.023 15.218 79.511 14.938C79.007 14.65 78.611 14.246 78.323 13.726C78.043 13.206 77.903 12.606 77.903 11.926C77.903 11.238 78.043 10.634 78.323 10.114C78.603 9.594 78.995 9.194 79.499 8.914C80.003 8.634 80.583 8.494 81.239 8.494C81.871 8.494 82.435 8.63 82.931 8.902C83.435 9.174 83.823 9.562 84.095 10.066C84.375 10.562 84.515 11.134 84.515 11.782ZM82.775 11.302C82.767 10.87 82.611 10.526 82.307 10.27C82.003 10.006 81.631 9.874 81.191 9.874C80.775 9.874 80.423 10.002 80.135 10.258C79.855 10.506 79.683 10.854 79.619 11.302H82.775ZM87.4213 6.37V15.25H85.7413V6.37H87.4213Z" fill="#0094FF"/>
<path d="M30.1073 23.25V20.89H29.1793V20.45H31.5553V20.89H30.6273V23.25H30.1073ZM31.8467 23.25V21.114H32.3227V21.702L32.2667 21.53C32.3307 21.386 32.4307 21.2767 32.5667 21.202C32.7054 21.1273 32.8774 21.09 33.0827 21.09V21.566C33.0614 21.5607 33.0414 21.558 33.0227 21.558C33.0041 21.5553 32.9854 21.554 32.9667 21.554C32.7774 21.554 32.6267 21.61 32.5147 21.722C32.4027 21.8313 32.3467 21.9953 32.3467 22.214V23.25H31.8467ZM34.6706 23.25V22.818L34.6426 22.726V21.97C34.6426 21.8233 34.5986 21.71 34.5106 21.63C34.4226 21.5473 34.2892 21.506 34.1106 21.506C33.9906 21.506 33.8719 21.5247 33.7546 21.562C33.6399 21.5993 33.5426 21.6513 33.4626 21.718L33.2666 21.354C33.3812 21.266 33.5172 21.2007 33.6746 21.158C33.8346 21.1127 33.9999 21.09 34.1706 21.09C34.4799 21.09 34.7186 21.1647 34.8866 21.314C35.0572 21.4607 35.1426 21.6887 35.1426 21.998V23.25H34.6706ZM33.9986 23.278C33.8386 23.278 33.6986 23.2513 33.5786 23.198C33.4586 23.142 33.3652 23.066 33.2986 22.97C33.2346 22.8713 33.2026 22.7607 33.2026 22.638C33.2026 22.518 33.2306 22.41 33.2866 22.314C33.3452 22.218 33.4399 22.142 33.5706 22.086C33.7012 22.03 33.8746 22.002 34.0906 22.002H34.7106V22.334H34.1266C33.9559 22.334 33.8412 22.362 33.7826 22.418C33.7239 22.4713 33.6946 22.538 33.6946 22.618C33.6946 22.7087 33.7306 22.7807 33.8026 22.834C33.8746 22.8873 33.9746 22.914 34.1026 22.914C34.2252 22.914 34.3346 22.886 34.4306 22.83C34.5292 22.774 34.5999 22.6913 34.6426 22.582L34.7266 22.882C34.6786 23.0073 34.5919 23.1047 34.4666 23.174C34.3439 23.2433 34.1879 23.278 33.9986 23.278ZM36.3132 23.25L35.3972 21.114H35.9172L36.7052 22.998H36.4492L37.2652 21.114H37.7452L36.8292 23.25H36.3132ZM39.0031 23.278C38.7657 23.278 38.5577 23.2313 38.3791 23.138C38.2031 23.042 38.0657 22.9113 37.9671 22.746C37.8711 22.5807 37.8231 22.3927 37.8231 22.182C37.8231 21.9687 37.8697 21.7807 37.9631 21.618C38.0591 21.4527 38.1897 21.3233 38.3551 21.23C38.5231 21.1367 38.7137 21.09 38.9271 21.09C39.1351 21.09 39.3204 21.1353 39.4831 21.226C39.6457 21.3167 39.7737 21.4447 39.8671 21.61C39.9604 21.7753 40.0071 21.97 40.0071 22.194C40.0071 22.2153 40.0057 22.2393 40.0031 22.266C40.0031 22.2927 40.0017 22.318 39.9991 22.342H38.2191V22.01H39.7351L39.5391 22.114C39.5417 21.9913 39.5164 21.8833 39.4631 21.79C39.4097 21.6967 39.3364 21.6233 39.2431 21.57C39.1524 21.5167 39.0471 21.49 38.9271 21.49C38.8044 21.49 38.6964 21.5167 38.6031 21.57C38.5124 21.6233 38.4404 21.698 38.3871 21.794C38.3364 21.8873 38.3111 21.998 38.3111 22.126V22.206C38.3111 22.334 38.3404 22.4473 38.3991 22.546C38.4577 22.6447 38.5404 22.7207 38.6471 22.774C38.7537 22.8273 38.8764 22.854 39.0151 22.854C39.1351 22.854 39.2431 22.8353 39.3391 22.798C39.4351 22.7607 39.5204 22.702 39.5951 22.622L39.8631 22.93C39.7671 23.042 39.6457 23.1287 39.4991 23.19C39.3551 23.2487 39.1897 23.278 39.0031 23.278ZM40.4874 23.25V20.282H40.9874V23.25H40.4874ZM43.6651 23.29C43.4464 23.29 43.2371 23.2593 43.0371 23.198C42.8371 23.134 42.6784 23.0527 42.5611 22.954L42.7411 22.55C42.8531 22.638 42.9917 22.7113 43.1571 22.77C43.3224 22.8287 43.4917 22.858 43.6651 22.858C43.8117 22.858 43.9304 22.842 44.0211 22.81C44.1117 22.778 44.1784 22.7353 44.2211 22.682C44.2637 22.626 44.2851 22.5633 44.2851 22.494C44.2851 22.4087 44.2544 22.3407 44.1931 22.29C44.1317 22.2367 44.0517 22.1953 43.9531 22.166C43.8571 22.134 43.7491 22.1047 43.6291 22.078C43.5117 22.0513 43.3931 22.0207 43.2731 21.986C43.1557 21.9487 43.0477 21.902 42.9491 21.846C42.8531 21.7873 42.7744 21.71 42.7131 21.614C42.6517 21.518 42.6211 21.3953 42.6211 21.246C42.6211 21.094 42.6611 20.9553 42.7411 20.83C42.8237 20.702 42.9477 20.6007 43.1131 20.526C43.2811 20.4487 43.4931 20.41 43.7491 20.41C43.9171 20.41 44.0837 20.4313 44.2491 20.474C44.4144 20.5167 44.5584 20.578 44.6811 20.658L44.5171 21.062C44.3917 20.9873 44.2624 20.9327 44.1291 20.898C43.9957 20.8607 43.8677 20.842 43.7451 20.842C43.6011 20.842 43.4837 20.8593 43.3931 20.894C43.3051 20.9287 43.2397 20.974 43.1971 21.03C43.1571 21.086 43.1371 21.15 43.1371 21.222C43.1371 21.3073 43.1664 21.3767 43.2251 21.43C43.2864 21.4807 43.3651 21.5207 43.4611 21.55C43.5597 21.5793 43.6691 21.6087 43.7891 21.638C43.9091 21.6647 44.0277 21.6953 44.1451 21.73C44.2651 21.7647 44.3731 21.81 44.4691 21.866C44.5677 21.922 44.6464 21.998 44.7051 22.094C44.7664 22.19 44.7971 22.3113 44.7971 22.458C44.7971 22.6073 44.7557 22.746 44.6731 22.874C44.5931 22.9993 44.4691 23.1007 44.3011 23.178C44.1331 23.2527 43.9211 23.29 43.6651 23.29ZM47.9607 21.09C48.1314 21.09 48.282 21.1233 48.4127 21.19C48.546 21.2567 48.65 21.3593 48.7247 21.498C48.7994 21.634 48.8367 21.81 48.8367 22.026V23.25H48.3367V22.09C48.3367 21.9007 48.2954 21.7593 48.2127 21.666C48.13 21.5727 48.0114 21.526 47.8567 21.526C47.7474 21.526 47.65 21.55 47.5647 21.598C47.482 21.646 47.4167 21.7167 47.3687 21.81C47.3234 21.9033 47.3007 22.022 47.3007 22.166V23.25H46.8007V22.09C46.8007 21.9007 46.7594 21.7593 46.6767 21.666C46.594 21.5727 46.4754 21.526 46.3207 21.526C46.2114 21.526 46.114 21.55 46.0287 21.598C45.946 21.646 45.8807 21.7167 45.8327 21.81C45.7874 21.9033 45.7647 22.022 45.7647 22.166V23.25H45.2647V21.114H45.7407V21.682L45.6567 21.514C45.7287 21.3753 45.8327 21.27 45.9687 21.198C46.1074 21.126 46.2647 21.09 46.4407 21.09C46.6407 21.09 46.814 21.1393 46.9607 21.238C47.11 21.3367 47.2087 21.486 47.2567 21.686L47.0607 21.618C47.13 21.458 47.2447 21.33 47.4047 21.234C47.5647 21.138 47.75 21.09 47.9607 21.09ZM50.7916 23.25V22.818L50.7636 22.726V21.97C50.7636 21.8233 50.7196 21.71 50.6316 21.63C50.5436 21.5473 50.4103 21.506 50.2316 21.506C50.1116 21.506 49.993 21.5247 49.8756 21.562C49.761 21.5993 49.6636 21.6513 49.5836 21.718L49.3876 21.354C49.5023 21.266 49.6383 21.2007 49.7956 21.158C49.9556 21.1127 50.121 21.09 50.2916 21.09C50.601 21.09 50.8396 21.1647 51.0076 21.314C51.1783 21.4607 51.2636 21.6887 51.2636 21.998V23.25H50.7916ZM50.1196 23.278C49.9596 23.278 49.8196 23.2513 49.6996 23.198C49.5796 23.142 49.4863 23.066 49.4196 22.97C49.3556 22.8713 49.3236 22.7607 49.3236 22.638C49.3236 22.518 49.3516 22.41 49.4076 22.314C49.4663 22.218 49.561 22.142 49.6916 22.086C49.8223 22.03 49.9956 22.002 50.2116 22.002H50.8316V22.334H50.2476C50.077 22.334 49.9623 22.362 49.9036 22.418C49.845 22.4713 49.8156 22.538 49.8156 22.618C49.8156 22.7087 49.8516 22.7807 49.9236 22.834C49.9956 22.8873 50.0956 22.914 50.2236 22.914C50.3463 22.914 50.4556 22.886 50.5516 22.83C50.6503 22.774 50.721 22.6913 50.7636 22.582L50.8476 22.882C50.7996 23.0073 50.713 23.1047 50.5876 23.174C50.465 23.2433 50.309 23.278 50.1196 23.278ZM51.9053 23.25V21.114H52.3813V21.702L52.3253 21.53C52.3893 21.386 52.4893 21.2767 52.6253 21.202C52.764 21.1273 52.936 21.09 53.1413 21.09V21.566C53.12 21.5607 53.1 21.558 53.0813 21.558C53.0627 21.5553 53.044 21.554 53.0253 21.554C52.836 21.554 52.6853 21.61 52.5733 21.722C52.4613 21.8313 52.4053 21.9953 52.4053 22.214V23.25H51.9053ZM54.4476 23.278C54.2129 23.278 54.0316 23.218 53.9036 23.098C53.7756 22.9753 53.7116 22.7953 53.7116 22.558V20.642H54.2116V22.546C54.2116 22.6473 54.2369 22.726 54.2876 22.782C54.3409 22.838 54.4143 22.866 54.5076 22.866C54.6196 22.866 54.7129 22.8367 54.7876 22.778L54.9276 23.134C54.8689 23.182 54.7969 23.218 54.7116 23.242C54.6263 23.266 54.5383 23.278 54.4476 23.278ZM53.3596 21.53V21.13H54.7836V21.53H53.3596ZM55.246 23.854L55.478 22.97L55.546 23.266C55.4527 23.266 55.374 23.238 55.31 23.182C55.2487 23.1233 55.218 23.0447 55.218 22.946C55.218 22.8447 55.2487 22.7647 55.31 22.706C55.374 22.6447 55.4513 22.614 55.542 22.614C55.6353 22.614 55.7127 22.6447 55.774 22.706C55.8353 22.7673 55.866 22.8473 55.866 22.946C55.866 22.9727 55.8633 23.002 55.858 23.034C55.8527 23.0633 55.8433 23.098 55.83 23.138C55.8193 23.178 55.8007 23.2287 55.774 23.29L55.57 23.854H55.246ZM58.076 23.25V20.89H57.148V20.45H59.524V20.89H58.596V23.25H58.076ZM59.8155 23.25V21.114H60.2915V21.702L60.2355 21.53C60.2995 21.386 60.3995 21.2767 60.5355 21.202C60.6742 21.1273 60.8462 21.09 61.0515 21.09V21.566C61.0302 21.5607 61.0102 21.558 60.9915 21.558C60.9728 21.5553 60.9542 21.554 60.9355 21.554C60.7462 21.554 60.5955 21.61 60.4835 21.722C60.3715 21.8313 60.3155 21.9953 60.3155 22.214V23.25H59.8155ZM61.4756 23.25V21.114H61.9756V23.25H61.4756ZM61.7276 20.762C61.6343 20.762 61.557 20.7327 61.4956 20.674C61.437 20.6153 61.4076 20.5447 61.4076 20.462C61.4076 20.3767 61.437 20.306 61.4956 20.25C61.557 20.1913 61.6343 20.162 61.7276 20.162C61.821 20.162 61.897 20.19 61.9556 20.246C62.017 20.2993 62.0476 20.3673 62.0476 20.45C62.0476 20.538 62.0183 20.6127 61.9596 20.674C61.901 20.7327 61.8236 20.762 61.7276 20.762ZM63.8159 23.278C63.6426 23.278 63.4839 23.238 63.3399 23.158C63.1986 23.078 63.0852 22.958 62.9999 22.798C62.9172 22.6353 62.8759 22.43 62.8759 22.182C62.8759 21.9313 62.9159 21.726 62.9959 21.566C63.0786 21.406 63.1906 21.2873 63.3319 21.21C63.4732 21.13 63.6346 21.09 63.8159 21.09C64.0266 21.09 64.2119 21.1353 64.3719 21.226C64.5346 21.3167 64.6626 21.4433 64.7559 21.606C64.8519 21.7687 64.8999 21.9607 64.8999 22.182C64.8999 22.4033 64.8519 22.5967 64.7559 22.762C64.6626 22.9247 64.5346 23.0513 64.3719 23.142C64.2119 23.2327 64.0266 23.278 63.8159 23.278ZM62.6319 24.026V21.114H63.1079V21.618L63.0919 22.186L63.1319 22.754V24.026H62.6319ZM63.7599 22.85C63.8799 22.85 63.9866 22.8233 64.0799 22.77C64.1759 22.7167 64.2519 22.6393 64.3079 22.538C64.3639 22.4367 64.3919 22.318 64.3919 22.182C64.3919 22.0433 64.3639 21.9247 64.3079 21.826C64.2519 21.7247 64.1759 21.6473 64.0799 21.594C63.9866 21.5407 63.8799 21.514 63.7599 21.514C63.6399 21.514 63.5319 21.5407 63.4359 21.594C63.3399 21.6473 63.2639 21.7247 63.2079 21.826C63.1519 21.9247 63.1239 22.0433 63.1239 22.182C63.1239 22.318 63.1519 22.4367 63.2079 22.538C63.2639 22.6393 63.3399 22.7167 63.4359 22.77C63.5319 22.8233 63.6399 22.85 63.7599 22.85ZM65.6932 23.25V20.89H64.7652V20.45H67.1412V20.89H66.2132V23.25H65.6932ZM67.4327 23.25V21.114H67.9087V21.702L67.8527 21.53C67.9167 21.386 68.0167 21.2767 68.1527 21.202C68.2913 21.1273 68.4633 21.09 68.6687 21.09V21.566C68.6473 21.5607 68.6273 21.558 68.6087 21.558C68.59 21.5553 68.5713 21.554 68.5527 21.554C68.3633 21.554 68.2127 21.61 68.1007 21.722C67.9887 21.8313 67.9327 21.9953 67.9327 22.214V23.25H67.4327ZM70.2565 23.25V22.818L70.2285 22.726V21.97C70.2285 21.8233 70.1845 21.71 70.0965 21.63C70.0085 21.5473 69.8752 21.506 69.6965 21.506C69.5765 21.506 69.4578 21.5247 69.3405 21.562C69.2258 21.5993 69.1285 21.6513 69.0485 21.718L68.8525 21.354C68.9672 21.266 69.1032 21.2007 69.2605 21.158C69.4205 21.1127 69.5858 21.09 69.7565 21.09C70.0658 21.09 70.3045 21.1647 70.4725 21.314C70.6432 21.4607 70.7285 21.6887 70.7285 21.998V23.25H70.2565ZM69.5845 23.278C69.4245 23.278 69.2845 23.2513 69.1645 23.198C69.0445 23.142 68.9512 23.066 68.8845 22.97C68.8205 22.8713 68.7885 22.7607 68.7885 22.638C68.7885 22.518 68.8165 22.41 68.8725 22.314C68.9312 22.218 69.0258 22.142 69.1565 22.086C69.2872 22.03 69.4605 22.002 69.6765 22.002H70.2965V22.334H69.7125C69.5418 22.334 69.4272 22.362 69.3685 22.418C69.3098 22.4713 69.2805 22.538 69.2805 22.618C69.2805 22.7087 69.3165 22.7807 69.3885 22.834C69.4605 22.8873 69.5605 22.914 69.6885 22.914C69.8112 22.914 69.9205 22.886 70.0165 22.83C70.1152 22.774 70.1858 22.6913 70.2285 22.582L70.3125 22.882C70.2645 23.0073 70.1778 23.1047 70.0525 23.174C69.9298 23.2433 69.7738 23.278 69.5845 23.278ZM71.8991 23.25L70.9831 21.114H71.5031L72.2911 22.998H72.0351L72.8511 21.114H73.3311L72.4151 23.25H71.8991ZM74.589 23.278C74.3517 23.278 74.1437 23.2313 73.965 23.138C73.789 23.042 73.6517 22.9113 73.553 22.746C73.457 22.5807 73.409 22.3927 73.409 22.182C73.409 21.9687 73.4557 21.7807 73.549 21.618C73.645 21.4527 73.7757 21.3233 73.941 21.23C74.109 21.1367 74.2997 21.09 74.513 21.09C74.721 21.09 74.9064 21.1353 75.069 21.226C75.2317 21.3167 75.3597 21.4447 75.453 21.61C75.5464 21.7753 75.593 21.97 75.593 22.194C75.593 22.2153 75.5917 22.2393 75.589 22.266C75.589 22.2927 75.5877 22.318 75.585 22.342H73.805V22.01H75.321L75.125 22.114C75.1277 21.9913 75.1024 21.8833 75.049 21.79C74.9957 21.6967 74.9224 21.6233 74.829 21.57C74.7384 21.5167 74.633 21.49 74.513 21.49C74.3904 21.49 74.2824 21.5167 74.189 21.57C74.0984 21.6233 74.0264 21.698 73.973 21.794C73.9224 21.8873 73.897 21.998 73.897 22.126V22.206C73.897 22.334 73.9264 22.4473 73.985 22.546C74.0437 22.6447 74.1264 22.7207 74.233 22.774C74.3397 22.8273 74.4624 22.854 74.601 22.854C74.721 22.854 74.829 22.8353 74.925 22.798C75.021 22.7607 75.1064 22.702 75.181 22.622L75.449 22.93C75.353 23.042 75.2317 23.1287 75.085 23.19C74.941 23.2487 74.7757 23.278 74.589 23.278ZM76.0733 23.25V20.282H76.5733V23.25H76.0733ZM77.2616 22.322L77.1656 20.45H77.7576L77.6576 22.322H77.2616ZM77.4616 23.278C77.3682 23.278 77.2909 23.2473 77.2296 23.186C77.1682 23.1247 77.1376 23.0513 77.1376 22.966C77.1376 22.8807 77.1682 22.8087 77.2296 22.75C77.2909 22.6887 77.3682 22.658 77.4616 22.658C77.5549 22.658 77.6309 22.6887 77.6896 22.75C77.7482 22.8087 77.7776 22.8807 77.7776 22.966C77.7776 23.0513 77.7482 23.1247 77.6896 23.186C77.6309 23.2473 77.5549 23.278 77.4616 23.278Z" fill="#F90000"/>
</svg>
